# xmcd
#
# Track frame offsets:
#	150
#	26838
#	53532
#
# Disc length: 1065 seconds
#
# Revision: 0
# Processed by: cddbd v1.5.2PL0 Copyright (c) Steve Scherf et al.
# Submitted via: dBpowerAMP V4.0
#
DISCID=1c042703
DTITLE=Bering Strait - Bering Straight
DYEAR=1900
DGENRE=Country
TTITLE0=Bering Straight
TTITLE1=Bering Straight
TTITLE2=Bering Straight
EXTD=
EXTT0=
EXTT1=
EXTT2=
PLAYORDER=
